<svg width="512" height="512" viewBox="0 0 512 512" fill="none" xmlns="http://www.w3.org/2000/svg">
<circle cx="256" cy="256" r="220" fill="#323232" stroke="#C63636" stroke-width="8"/>
<mask id="mask0_5_638" style="mask-type:alpha" maskUnits="userSpaceOnUse" x="40" y="40" width="432" height="432">
<circle cx="256" cy="256" r="212" fill="#323232" stroke="#C63636" stroke-width="8"/>
</mask>
<g mask="url(#mask0_5_638)">
<path d="M499.223 295.577C525.295 321.637 541.421 357.646 541.421 397.421C541.421 476.95 476.95 541.421 397.421 541.421C357.668 541.421 321.677 525.312 295.619 499.266C269.548 473.206 253.421 437.197 253.421 397.421C253.421 317.892 317.892 253.421 397.421 253.421C437.175 253.421 473.166 269.53 499.223 295.577Z" fill="#1E1E1E"/>
<path d="M256 112C176.471 112 112 176.471 112 256L253.421 397.421C253.421 317.892 317.892 253.421 397.421 253.421L256 112Z" fill="#1E1E1E"/>
<path d="M357.802 154.155C331.745 128.109 295.754 112 256 112L397.421 253.421C437.175 253.421 473.166 269.53 499.223 295.577L357.802 154.155Z" fill="#1E1E1E"/>
<path d="M112 256C112 295.775 128.127 331.784 154.198 357.845L295.577 499.223C269.53 473.166 253.421 437.175 253.421 397.421L112 256Z" fill="#1E1E1E"/>
<path d="M400 256C400 216.246 383.891 180.255 357.845 154.198L499.223 295.577C525.295 321.637 541.421 357.646 541.421 397.421L400 256Z" fill="#1E1E1E"/>
<path d="M154.198 357.845C180.255 383.891 216.246 400 256 400L397.421 541.421C357.668 541.421 321.677 525.312 295.619 499.266L154.198 357.845Z" fill="#1E1E1E"/>
<path d="M256 400C335.529 400 400 335.529 400 256L541.421 397.421C541.421 476.95 476.95 541.421 397.421 541.421L256 400Z" fill="#1E1E1E"/>
<circle cx="256" cy="256" r="144" fill="white"/>
<circle cx="256" cy="256" r="144" fill="white"/>
<path fill-rule="evenodd" clip-rule="evenodd" d="M400 256C400 176.471 335.529 112 256 112C176.471 112 112 176.471 112 256H400Z" fill="#C63636"/>
<circle cx="256" cy="256" r="60" fill="white" stroke="#323232" stroke-width="8"/>
<path fill-rule="evenodd" clip-rule="evenodd" d="M320 256H400V248H319.505C319.832 250.621 320 253.291 320 256ZM192.495 248C192.168 250.621 192 253.291 192 256H112V248L192.495 248Z" fill="#323232"/>
</g>
</svg>
